<?xml version="1.0" encoding="UTF-8" standalone="no"?>
<svg xmlns="http://www.w3.org/2000/svg" viewBox="0 0 600 600">
  <rect width="600" height="600" rx="96" fill="#001a23"/>
  <g transform="translate(90,118.65) scale(0.7749)">
    <g transform="translate(0,468) scale(0.1,-0.1)" fill="#b3efb2" stroke="none">
      <path d="M2700 4340 c-201 -41 -406 -269 -450 -501 -6 -29 -10 -259 -10 -535
      l0 -484 384 0 385 0 3 288 c3 273 4 289 25 328 30 57 83 100 145 119 62 18
      312 21 404 4 228 -42 379 -257 360 -514 -16 -219 -131 -378 -315 -435 -61 -19
      -95 -20 -1012 -20 l-949 0 0 255 c0 149 -4 255 -9 255 -15 0 -1346 -929 -1346
      -939 0 -9 1337 -871 1350 -871 3 0 5 117 5 260 l0 260 979 0 c822 0 992 2
      1064 15 256 45 492 168 677 354 153 154 255 322 318 521 44 140 57 228 56 390
      -1 353 -107 618 -348 869 -180 187 -392 305 -656 364 -88 19 -128 21 -555 23
      -253 1 -480 -2 -505 -6z M2220 940 l0 -620 390 0 390 0 0 620 0 620 -390 0
      -390 0 0 -620z"/>
    </g>
  </g>
</svg>